<svg width="24" height="24" viewBox="0 0 24 24" fill="none" xmlns="http://www.w3.org/2000/svg">
<mask id="mask0_153_205" style="mask-type:alpha" maskUnits="userSpaceOnUse" x="0" y="0" width="24" height="24">
<rect width="24" height="24" fill="#D9D9D9"/>
</mask>
<g mask="url(#mask0_153_205)">
<path d="M6.75004 21.5C6.40004 21.15 6.22504 20.7206 6.22504 20.212C6.22504 19.704 6.40004 19.2749 6.75004 18.9249L13.675 12L6.72504 5.04995C6.37504 4.69995 6.19604 4.27495 6.18804 3.77495C6.17938 3.27495 6.35838 2.84162 6.72504 2.47495C7.07504 2.12495 7.50404 1.94995 8.01204 1.94995C8.52071 1.94995 8.95004 2.12495 9.30004 2.47495L17.725 10.9C17.875 11.05 17.9874 11.2206 18.062 11.412C18.1374 11.604 18.175 11.8 18.175 12C18.175 12.2 18.1374 12.3956 18.062 12.587C17.9874 12.779 17.875 12.95 17.725 13.1L9.30004 21.525C8.95004 21.875 8.52938 22.0499 8.03804 22.0499C7.54604 22.0499 7.11671 21.8666 6.75004 21.5Z" fill="#222222"/>
</g>
</svg>
