<svg width="14" height="14" viewBox="0 0 14 14" fill="none" xmlns="http://www.w3.org/2000/svg">
<mask id="mask0_555_7" style="mask-type:alpha" maskUnits="userSpaceOnUse" x="0" y="0" width="14" height="14">
<rect width="14" height="14" fill="#D9D9D9"/>
</mask>
<g mask="url(#mask0_555_7)">
<path d="M9.04166 11.6667C8.79861 11.6667 8.59211 11.5815 8.42216 11.4112C8.25183 11.2412 8.16666 11.0347 8.16666 10.7917V4.08333H6.125C5.88194 4.08333 5.67544 3.99817 5.5055 3.82783C5.33516 3.65789 5.25 3.45139 5.25 3.20833C5.25 2.96528 5.33516 2.75878 5.5055 2.58883C5.67544 2.4185 5.88194 2.33333 6.125 2.33333H11.9583C12.2014 2.33333 12.4079 2.4185 12.5778 2.58883C12.7482 2.75878 12.8333 2.96528 12.8333 3.20833C12.8333 3.45139 12.7482 3.65789 12.5778 3.82783C12.4079 3.99817 12.2014 4.08333 11.9583 4.08333H9.91666V10.7917C9.91666 11.0347 9.8315 11.2412 9.66116 11.4112C9.49122 11.5815 9.28472 11.6667 9.04166 11.6667ZM3.79166 11.6667C3.54861 11.6667 3.34211 11.5815 3.17216 11.4112C3.00183 11.2412 2.91666 11.0347 2.91666 10.7917V7H2.04166C1.79861 7 1.59211 6.91483 1.42216 6.7445C1.25183 6.57455 1.16666 6.36805 1.16666 6.125C1.16666 5.88194 1.25183 5.67544 1.42216 5.5055C1.59211 5.33517 1.79861 5.25 2.04166 5.25H5.54166C5.78472 5.25 5.99122 5.33517 6.16116 5.5055C6.3315 5.67544 6.41666 5.88194 6.41666 6.125C6.41666 6.36805 6.3315 6.57455 6.16116 6.7445C5.99122 6.91483 5.78472 7 5.54166 7H4.66666V10.7917C4.66666 11.0347 4.5815 11.2412 4.41116 11.4112C4.24122 11.5815 4.03472 11.6667 3.79166 11.6667Z" fill="#222"/>
</g>
</svg>
