<svg width="14" height="14" viewBox="0 0 14 14" fill="none" xmlns="http://www.w3.org/2000/svg">
<mask id="mask0_539_7" style="mask-type:alpha" maskUnits="userSpaceOnUse" x="0" y="0" width="14" height="14">
<rect x="14" y="14" width="14" height="14" transform="rotate(-180 14 14)" fill="#D9D9D9"/>
</mask>
<g mask="url(#mask0_539_7)">
<path d="M6.99999 1.16666C7.80694 1.16666 8.56527 1.31989 9.27499 1.62633C9.98472 1.93239 10.6021 2.34791 11.1271 2.87291C11.6521 3.39791 12.0676 4.01528 12.3737 4.725C12.6801 5.43472 12.8333 6.19305 12.8333 7C12.8333 7.80694 12.6801 8.56528 12.3737 9.275C12.0676 9.98472 11.6521 10.6021 11.1271 11.1271C10.6021 11.6521 9.98472 12.0678 9.27499 12.3742C8.56527 12.6803 7.80694 12.8333 6.99999 12.8333C6.19305 12.8333 5.43472 12.6803 4.72499 12.3742C4.01527 12.0678 3.39791 11.6521 2.87291 11.1271C2.34791 10.6021 1.93238 9.98472 1.62633 9.275C1.31988 8.56528 1.16666 7.80694 1.16666 7C1.16666 6.19305 1.31988 5.43472 1.62633 4.725C1.93238 4.01528 2.34791 3.39791 2.87291 2.87291C3.39791 2.34791 4.01527 1.93239 4.72499 1.62633C5.43472 1.31989 6.19305 1.16666 6.99999 1.16666ZM6.41666 2.37708C5.25972 2.52292 4.28983 3.031 3.50699 3.90133C2.72455 4.77128 2.33333 5.80416 2.33333 7C2.33333 8.19583 2.72455 9.22892 3.50699 10.0992C4.28983 10.9692 5.25972 11.4771 6.41666 11.6229L6.41666 2.37708Z" fill="#1C1B1F"/>
</g>
</svg>
