<svg width="24" height="24" viewBox="0 0 24 24" fill="none" xmlns="http://www.w3.org/2000/svg">
<mask id="mask0_151_187" style="mask-type:alpha" maskUnits="userSpaceOnUse" x="0" y="0" width="24" height="24">
<rect width="24" height="24" fill="#D9D9D9"/>
</mask>
<g mask="url(#mask0_151_187)">
<path d="M12 15.5001C11.8 15.5001 11.6043 15.4624 11.413 15.3871C11.221 15.3124 11.05 15.2001 10.9 15.0501L6.27501 10.4251C5.97501 10.1251 5.82934 9.76239 5.83801 9.33705C5.84601 8.91239 6.00001 8.55005 6.30001 8.25005C6.60001 7.95005 6.96668 7.80005 7.40001 7.80005C7.83335 7.80005 8.20001 7.95005 8.50001 8.25005L12 11.7501L15.525 8.22506C15.825 7.92506 16.1877 7.77905 16.613 7.78705C17.0377 7.79572 17.4 7.95005 17.7 8.25005C18 8.55005 18.15 8.91672 18.15 9.35006C18.15 9.78339 18 10.1501 17.7 10.4501L13.1 15.0501C12.95 15.2001 12.7793 15.3124 12.588 15.3871C12.396 15.4624 12.2 15.5001 12 15.5001Z" fill="#222222"/>
</g>
</svg>
