<svg width="14" height="14" viewBox="0 0 14 14" fill="none" xmlns="http://www.w3.org/2000/svg">
<mask id="mask0_541_31" style="mask-type:alpha" maskUnits="userSpaceOnUse" x="0" y="0" width="14" height="14">
<rect width="14" height="14" fill="#D9D9D9"/>
</mask>
<g mask="url(#mask0_541_31)">
<path d="M7 12.25C5.53194 12.25 4.28983 11.7419 3.27367 10.7257C2.25789 9.70997 1.75 8.46805 1.75 7C1.75 5.65833 2.1875 4.494 3.0625 3.507C3.9375 2.52039 5.05556 1.94444 6.41667 1.77917C6.65972 1.75 6.84931 1.8375 6.98542 2.04167C7.12153 2.24583 7.11667 2.45972 6.97083 2.68333C6.80556 2.93611 6.6815 3.20347 6.59867 3.48542C6.51622 3.76736 6.475 4.06389 6.475 4.375C6.475 5.25 6.78125 5.99375 7.39375 6.60625C8.00625 7.21875 8.75 7.525 9.625 7.525C9.92639 7.525 10.2254 7.48125 10.5222 7.39375C10.8185 7.30625 11.0833 7.18472 11.3167 7.02917C11.5208 6.89305 11.7299 6.88567 11.9437 7.007C12.1576 7.12872 12.25 7.32083 12.2208 7.58333C12.0847 8.925 11.5136 10.0382 10.5076 10.9229C9.50114 11.8076 8.33194 12.25 7 12.25Z" fill="#1C1B1F"/>
</g>
</svg>
