<svg width="14" height="14" viewBox="0 0 14 14" fill="none" xmlns="http://www.w3.org/2000/svg">
<mask id="mask0_541_37" style="mask-type:alpha" maskUnits="userSpaceOnUse" x="0" y="0" width="14" height="14">
<rect width="14" height="14" fill="#D9D9D9"/>
</mask>
<g mask="url(#mask0_541_37)">
<path d="M7 9.91667C6.19306 9.91667 5.50531 9.63219 4.93675 9.06325C4.36781 8.49469 4.08334 7.80694 4.08334 7C4.08334 6.19306 4.36781 5.50511 4.93675 4.93617C5.50531 4.36761 6.19306 4.08333 7 4.08333C7.80695 4.08333 8.49489 4.36761 9.06384 4.93617C9.63239 5.50511 9.91667 6.19306 9.91667 7C9.91667 7.80694 9.63239 8.49469 9.06384 9.06325C8.49489 9.63219 7.80695 9.91667 7 9.91667ZM1.16667 7.58333C1.00139 7.58333 0.862947 7.52733 0.751336 7.41533C0.639336 7.30372 0.583336 7.16528 0.583336 7C0.583336 6.83472 0.639336 6.69608 0.751336 6.58408C0.862947 6.47247 1.00139 6.41667 1.16667 6.41667H2.33334C2.49861 6.41667 2.63725 6.47247 2.74925 6.58408C2.86086 6.69608 2.91667 6.83472 2.91667 7C2.91667 7.16528 2.86086 7.30372 2.74925 7.41533C2.63725 7.52733 2.49861 7.58333 2.33334 7.58333H1.16667ZM11.6667 7.58333C11.5014 7.58333 11.3629 7.52733 11.2513 7.41533C11.1393 7.30372 11.0833 7.16528 11.0833 7C11.0833 6.83472 11.1393 6.69608 11.2513 6.58408C11.3629 6.47247 11.5014 6.41667 11.6667 6.41667H12.8333C12.9986 6.41667 13.1371 6.47247 13.2487 6.58408C13.3607 6.69608 13.4167 6.83472 13.4167 7C13.4167 7.16528 13.3607 7.30372 13.2487 7.41533C13.1371 7.52733 12.9986 7.58333 12.8333 7.58333H11.6667ZM7 2.91667C6.83472 2.91667 6.69628 2.86067 6.58467 2.74867C6.47267 2.63706 6.41667 2.49861 6.41667 2.33333V1.16667C6.41667 1.00139 6.47267 0.86275 6.58467 0.75075C6.69628 0.639139 6.83472 0.583333 7 0.583333C7.16528 0.583333 7.30392 0.639139 7.41592 0.75075C7.52753 0.86275 7.58334 1.00139 7.58334 1.16667V2.33333C7.58334 2.49861 7.52753 2.63706 7.41592 2.74867C7.30392 2.86067 7.16528 2.91667 7 2.91667ZM7 13.4167C6.83472 13.4167 6.69628 13.3607 6.58467 13.2487C6.47267 13.1371 6.41667 12.9986 6.41667 12.8333V11.6667C6.41667 11.5014 6.47267 11.3629 6.58467 11.2513C6.69628 11.1393 6.83472 11.0833 7 11.0833C7.16528 11.0833 7.30392 11.1393 7.41592 11.2513C7.52753 11.3629 7.58334 11.5014 7.58334 11.6667V12.8333C7.58334 12.9986 7.52753 13.1371 7.41592 13.2487C7.30392 13.3607 7.16528 13.4167 7 13.4167ZM3.29584 4.1125L2.66875 3.5C2.55209 3.39306 2.49609 3.25694 2.50075 3.09167C2.50581 2.92639 2.56181 2.78542 2.66875 2.66875C2.78542 2.55208 2.92639 2.49375 3.09167 2.49375C3.25695 2.49375 3.39306 2.55208 3.5 2.66875L4.1125 3.29583C4.21945 3.4125 4.27292 3.54861 4.27292 3.70417C4.27292 3.85972 4.21945 3.99583 4.1125 4.1125C4.00556 4.22917 3.87197 4.28497 3.71175 4.27992C3.55114 4.27525 3.4125 4.21944 3.29584 4.1125ZM10.5 11.3312L9.8875 10.7042C9.78056 10.5875 9.72709 10.4491 9.72709 10.2888C9.72709 10.1282 9.78056 9.99444 9.8875 9.8875C9.99445 9.77083 10.1282 9.71503 10.2888 9.72008C10.4491 9.72475 10.5875 9.78056 10.7042 9.8875L11.3313 10.5C11.4479 10.6069 11.5039 10.7431 11.4993 10.9083C11.4942 11.0736 11.4382 11.2146 11.3313 11.3312C11.2146 11.4479 11.0736 11.5062 10.9083 11.5062C10.7431 11.5062 10.6069 11.4479 10.5 11.3312ZM9.8875 4.1125C9.77084 4.00556 9.71503 3.87178 9.72009 3.71117C9.72475 3.55094 9.78056 3.4125 9.8875 3.29583L10.5 2.66875C10.6069 2.55208 10.7431 2.49608 10.9083 2.50075C11.0736 2.50581 11.2146 2.56181 11.3313 2.66875C11.4479 2.78542 11.5063 2.92639 11.5063 3.09167C11.5063 3.25694 11.4479 3.39306 11.3313 3.5L10.7042 4.1125C10.5875 4.21944 10.4514 4.27292 10.2958 4.27292C10.1403 4.27292 10.0042 4.21944 9.8875 4.1125ZM2.66875 11.3312C2.55209 11.2146 2.49375 11.0736 2.49375 10.9083C2.49375 10.7431 2.55209 10.6069 2.66875 10.5L3.29584 9.8875C3.4125 9.78056 3.55114 9.72708 3.71175 9.72708C3.87197 9.72708 4.00556 9.78056 4.1125 9.8875C4.22917 9.99444 4.28517 10.1282 4.2805 10.2888C4.27545 10.4491 4.21945 10.5875 4.1125 10.7042L3.5 11.3312C3.39306 11.4479 3.25695 11.5037 3.09167 11.4987C2.92639 11.494 2.78542 11.4382 2.66875 11.3312Z" fill="#1C1B1F"/>
</g>
</svg>
