<svg width="24" height="24" viewBox="0 0 24 24" fill="none" xmlns="http://www.w3.org/2000/svg">
<mask id="mask0_148_187" style="mask-type:alpha" maskUnits="userSpaceOnUse" x="0" y="0" width="24" height="24">
<rect width="24" height="24" fill="#D9D9D9"/>
</mask>
<g mask="url(#mask0_148_187)">
<path d="M2.65 19C2.2 19 1.86667 18.85 1.65 18.55C1.43334 18.25 1.40834 17.8833 1.575 17.45L5.825 6.15C5.95834 5.83333 6.18767 5.56267 6.513 5.338C6.83767 5.11267 7.175 5 7.525 5C7.85834 5 8.18334 5.11267 8.5 5.338C8.81667 5.56267 9.04167 5.83333 9.175 6.15L13.4 17.425C13.5667 17.8583 13.546 18.2293 13.338 18.538C13.1293 18.846 12.7833 19 12.3 19C12.1167 19 11.9333 18.9373 11.75 18.812C11.5667 18.6873 11.4417 18.5333 11.375 18.35L10.325 15.425H4.675L3.65 18.325C3.58334 18.5083 3.45434 18.6667 3.263 18.8C3.071 18.9333 2.86667 19 2.65 19ZM5.4 13.4H9.6L7.55 7.6H7.45L5.4 13.4ZM19 16C18.7167 16 18.4793 15.904 18.288 15.712C18.096 15.5207 18 15.2833 18 15V13H16C15.7167 13 15.4793 12.904 15.288 12.712C15.096 12.5207 15 12.2833 15 12C15 11.7167 15.096 11.479 15.288 11.287C15.4793 11.0957 15.7167 11 16 11H18V9C18 8.71667 18.096 8.479 18.288 8.287C18.4793 8.09567 18.7167 8 19 8C19.2833 8 19.5207 8.09567 19.712 8.287C19.904 8.479 20 8.71667 20 9V11H22C22.2833 11 22.5207 11.0957 22.712 11.287C22.904 11.479 23 11.7167 23 12C23 12.2833 22.904 12.5207 22.712 12.712C22.5207 12.904 22.2833 13 22 13H20V15C20 15.2833 19.904 15.5207 19.712 15.712C19.5207 15.904 19.2833 16 19 16Z" fill="#222"/>
</g>
</svg>
