<svg width="25" height="25" viewBox="0 0 25 25" fill="none" xmlns="http://www.w3.org/2000/svg">
<mask id="mask0_148_181" style="mask-type:alpha" maskUnits="userSpaceOnUse" x="0" y="0" width="25" height="25">
<rect x="0.0667725" y="0.578613" width="24" height="24" fill="#D9D9D9"/>
</mask>
<g mask="url(#mask0_148_181)">
<path d="M2.71678 19.5786C2.26678 19.5786 1.93344 19.4286 1.71678 19.1286C1.50011 18.8286 1.47511 18.4619 1.64178 18.0286L5.89178 6.72861C6.02511 6.41195 6.25444 6.14128 6.57978 5.91661C6.90444 5.69128 7.24178 5.57861 7.59178 5.57861C7.92511 5.57861 8.25011 5.69128 8.56678 5.91661C8.88344 6.14128 9.10844 6.41195 9.24178 6.72861L13.4668 18.0036C13.6334 18.4369 13.6128 18.8079 13.4048 19.1166C13.1961 19.4246 12.8501 19.5786 12.3668 19.5786C12.1834 19.5786 12.0001 19.5159 11.8168 19.3906C11.6334 19.2659 11.5084 19.1119 11.4418 18.9286L10.3918 16.0036H4.74178L3.71678 18.9036C3.65011 19.0869 3.52111 19.2453 3.32978 19.3786C3.13778 19.5119 2.93344 19.5786 2.71678 19.5786ZM5.46678 13.9786H9.66678L7.61678 8.17861H7.51678L5.46678 13.9786ZM16.0668 13.5786C15.7834 13.5786 15.5461 13.4826 15.3548 13.2906C15.1628 13.0993 15.0668 12.8619 15.0668 12.5786C15.0668 12.2953 15.1628 12.0576 15.3548 11.8656C15.5461 11.6743 15.7834 11.5786 16.0668 11.5786H22.0668C22.3501 11.5786 22.5874 11.6743 22.7788 11.8656C22.9708 12.0576 23.0668 12.2953 23.0668 12.5786C23.0668 12.8619 22.9708 13.0993 22.7788 13.2906C22.5874 13.4826 22.3501 13.5786 22.0668 13.5786H16.0668Z" fill="#222"/>
</g>
</svg>
